<?xml version="1.0" encoding="iso-8859-1"?>
<!-- Generator: Adobe Illustrator 19.0.0, SVG Export Plug-In . SVG Version: 6.00 Build 0)  -->
<svg xmlns="http://www.w3.org/2000/svg" xmlns:xlink="http://www.w3.org/1999/xlink" version="1.1" id="Capa_1" x="0px" y="0px" viewBox="0 0 512 512" style="enable-background:new 0 0 512 512;" xml:space="preserve" width="512px" height="512px">
<g>
	<g>
		<path d="M463.239,343.026c34.141-81.698,18.034-179.601-48.352-245.986c-66.388-66.387-164.291-82.493-245.987-48.352    c-54.63-35.18-123.438-67.726-155.728-35.435c-35.11,35.109,8.782,114.054,35.395,155.642    c-16.526,39.367-21.487,82.337-14.328,124.807c7.791,46.224,29.444,88.192,62.62,121.368    c65.377,65.377,162.865,83.21,246.095,48.308c28.485,18.256,66.168,39.215,99.112,46.216c20.297,4.314,42.045,3.968,56.651-10.638    C533.967,463.705,490.283,385.022,463.239,343.026z M436.088,224.251c-5.859,5.859-15.342,5.86-21.202,0    c-5.846-5.845-5.846-15.357,0.001-21.203c5.857-5.859,15.341-5.859,21.201,0C441.934,208.894,441.934,218.406,436.088,224.251z     M393.686,118.241c15.234,15.234,27.407,32.386,36.534,50.683c-13.234-1.375-26.602,2.99-36.534,12.923    c-17.537,17.537-17.537,46.07,0,63.605c15.58,15.582,39.55,17.254,56.911,5.523c1.275,49.392-16.052,99.178-52.003,137.805    c-31.432-18.225-65.448-42.954-99.596-72.264c3.541-1.975,6.874-4.453,9.88-7.458c17.537-17.537,17.537-46.07,0-63.606    c-17.535-17.536-46.07-17.537-63.606,0c-3.695,3.695-6.603,7.883-8.74,12.348c-47.448-48.635-87.154-99.228-113.386-144.467    C199.47,42.293,319.368,43.926,393.686,118.241z M287.675,287.857c-4.842,4.841-12.194,5.66-17.9,2.481    c-1.777-1.66-3.553-3.33-5.327-5.011c-3.707-5.8-3.037-13.609,2.025-18.671c5.847-5.846,15.356-5.846,21.203,0    C293.535,272.515,293.535,281.998,287.675,287.857z M181.758,436.167c-8.772-3.587-17.309-7.817-25.528-12.685    c0.459-3.139,1.91-6.09,4.234-8.415c5.859-5.86,15.342-5.86,21.202,0C187.457,420.86,187.56,430.259,181.758,436.167z     M211.383,445.625c8.229-16.587,5.677-37.567-8.515-51.759c-17.577-17.578-46.027-17.579-63.605,0    c-3.476,3.476-6.299,7.419-8.432,11.663c-4.401-3.675-8.666-7.559-12.771-11.663c-51.047-51.046-69.131-126.328-48.68-194.306    c30.33,42.335,68.812,87.227,112.286,130.701c43.467,43.467,88.342,81.952,130.656,112.299    C279.19,452.52,244.329,453.328,211.383,445.625z M477.514,477.753c-20.872,20.87-135.696-29.744-274.647-168.694    C64.114,170.306,13.46,55.369,34.373,34.454c10.067-10.067,46.159-4.039,103.402,30.208    c-16.127,9.952-30.934,21.913-44.129,35.654c-4.529,4.716-5.478,11.825-2.348,17.565c28.811,52.803,75.963,113.169,132.77,169.977    c48.431,48.431,109.851,99.964,169.976,132.769c5.743,3.132,12.85,2.181,17.565-2.348c13.73-13.184,25.691-27.982,35.654-44.128    C481.577,431.498,487.606,467.662,477.514,477.753z" fill="#c732b1"/>
	</g>
</g>
<g>
	<g>
		<path d="M298.276,107.64c-23.437-23.436-61.368-23.44-84.808,0c-23.438,23.437-23.44,61.369,0,84.808    c11.692,11.692,27.046,17.536,42.403,17.536c15.355,0,30.714-5.847,42.404-17.536C321.658,169.066,321.658,131.021,298.276,107.64    z M277.075,171.247c-11.691,11.692-30.713,11.691-42.404,0c-11.72-11.722-11.719-30.685,0-42.404    c11.718-11.719,30.684-11.719,42.404,0C288.764,140.533,288.764,159.555,277.075,171.247z" fill="#c732b1"/>
	</g>
</g>
<g>
	<g>
		<circle cx="383.086" cy="298.461" r="14.992" fill="#c732b1"/>
	</g>
</g>
<g>
	<g>
		<circle cx="107.463" cy="319.66" r="14.992" fill="#c732b1"/>
	</g>
</g>
<g>
	<g>
		<circle cx="361.878" cy="150.04" r="14.992" fill="#c732b1"/>
	</g>
</g>
<g>
</g>
<g>
</g>
<g>
</g>
<g>
</g>
<g>
</g>
<g>
</g>
<g>
</g>
<g>
</g>
<g>
</g>
<g>
</g>
<g>
</g>
<g>
</g>
<g>
</g>
<g>
</g>
<g>
</g>
</svg>
